<?xml version="1.0" encoding="UTF-8" standalone="no"?>
<!-- Created with Inkscape (http://www.inkscape.org/) -->

<svg
   width="50.799999mm"
   height="128.5mm"
   viewBox="0 0 50.800003 128.50002"
   version="1.1"
   id="svg8"
   inkscape:version="1.2.2 (b0a84865, 2022-12-01)"
   sodipodi:docname="1080final.svg"
   xmlns:inkscape="http://www.inkscape.org/namespaces/inkscape"
   xmlns:sodipodi="http://sodipodi.sourceforge.net/DTD/sodipodi-0.dtd"
   xmlns="http://www.w3.org/2000/svg"
   xmlns:svg="http://www.w3.org/2000/svg"
   xmlns:rdf="http://www.w3.org/1999/02/22-rdf-syntax-ns#"
   xmlns:cc="http://creativecommons.org/ns#"
   xmlns:dc="http://purl.org/dc/elements/1.1/">
  <defs
     id="defs2" />
  <sodipodi:namedview
     id="base"
     pagecolor="#ffffff"
     bordercolor="#666666"
     borderopacity="1.0"
     inkscape:pageopacity="0.0"
     inkscape:pageshadow="2"
     inkscape:zoom="1.1434898"
     inkscape:cx="83.953526"
     inkscape:cy="230.8722"
     inkscape:document-units="mm"
     inkscape:current-layer="layer1"
     showgrid="false"
     units="mm"
     inkscape:snap-bbox="true"
     inkscape:snap-page="true"
     inkscape:bbox-nodes="false"
     inkscape:snap-bbox-edge-midpoints="false"
     inkscape:window-width="798"
     inkscape:window-height="838"
     inkscape:window-x="714"
     inkscape:window-y="38"
     inkscape:window-maximized="0"
     inkscape:snap-bbox-midpoints="true"
     inkscape:snap-nodes="false"
     inkscape:pagecheckerboard="0"
     inkscape:showpageshadow="2"
     inkscape:deskcolor="#d1d1d1" />
  <metadata
     id="metadata5">
    <rdf:RDF>
      <cc:Work
         rdf:about="">
        <dc:format>image/svg+xml</dc:format>
        <dc:type
           rdf:resource="http://purl.org/dc/dcmitype/StillImage" />
      </cc:Work>
    </rdf:RDF>
  </metadata>
  <g
     inkscape:label="Layer 1"
     inkscape:groupmode="layer"
     id="layer1"
     transform="translate(0,-168.49998)">
    <rect
       style="display:inline;opacity:1;vector-effect:none;fill:#e6e6e6;fill-opacity:1;fill-rule:evenodd;stroke:none;stroke-width:0.649358;stroke-linecap:butt;stroke-linejoin:miter;stroke-miterlimit:4;stroke-dasharray:none;stroke-dashoffset:0;stroke-opacity:1;paint-order:normal"
       id="rect420"
       width="30.48"
       height="128.5"
       x="5.9211732e-17"
       y="168.49997" />
    <g
       aria-label="Potentiometer"
       id="text5157"
       style="font-size:3.52778px;line-height:1.25;stroke-width:0.264583">
      <path
         d="m 3.330154,221.49213 v 0.96635 h 0.4375274 q 0.2428794,0 0.3755156,-0.12574 0.1326363,-0.12575 0.1326363,-0.35829 0,-0.23083 -0.1326363,-0.35657 -0.1326362,-0.12575 -0.3755156,-0.12575 z m -0.3479549,-0.28594 h 0.7854823 q 0.4323597,0 0.652846,0.19637 0.2222088,0.19465 0.2222088,0.57189 0,0.38068 -0.2222088,0.57533 -0.2204863,0.19464 -0.652846,0.19464 H 3.330154 v 1.03353 H 2.9821991 Z"
         id="path15749" />
      <path
         d="m 5.7176066,222.07091 q -0.2549372,0 -0.4030764,0.19981 -0.1481392,0.1981 -0.1481392,0.54433 0,0.34623 0.1464166,0.54605 0.1481392,0.19809 0.404799,0.19809 0.2532147,0 0.4013539,-0.19982 0.1481392,-0.19981 0.1481392,-0.54432 0,-0.34279 -0.1481392,-0.5426 -0.1481392,-0.20154 -0.4013539,-0.20154 z m 0,-0.26872 q 0.4134117,0 0.6494009,0.26872 0.2359892,0.26872 0.2359892,0.74414 0,0.4737 -0.2359892,0.74414 -0.2359892,0.26872 -0.6494009,0.26872 -0.4151343,0 -0.6511235,-0.26872 -0.2342666,-0.27044 -0.2342666,-0.74414 0,-0.47542 0.2342666,-0.74414 0.2359892,-0.26872 0.6511235,-0.26872 z"
         id="path15751" />
      <path
         d="m 7.4418781,221.30093 v 0.54777 h 0.652846 v 0.24632 h -0.652846 v 1.04731 q 0,0.23599 0.063734,0.30317 0.065457,0.0672 0.26355,0.0672 h 0.3255617 v 0.26527 H 7.7691624 q -0.3669029,0 -0.5064294,-0.13608 -0.1395264,-0.1378 -0.1395264,-0.49954 v -1.04731 H 6.8906625 v -0.24632 h 0.2325441 v -0.54777 z"
         id="path15753" />
      <path
         d="m 10.161783,222.73409 v 0.15503 H 8.7045065 q 0.020671,0.32728 0.1963706,0.49954 0.1774225,0.17053 0.492649,0.17053 0.1825901,0 0.3531225,-0.0448 0.1722549,-0.0448 0.3410644,-0.13435 v 0.29972 q -0.1705321,0.0724 -0.3496772,0.11024 -0.179145,0.0379 -0.3634578,0.0379 -0.4616431,0 -0.7320832,-0.26872 -0.2687177,-0.26872 -0.2687177,-0.72692 0,-0.4737 0.2549373,-0.75103 0.2566598,-0.27905 0.6907421,-0.27905 0.389296,0 0.6149499,0.25149 0.2273766,0.24977 0.2273766,0.68041 z m -0.3169491,-0.093 q -0.00345,-0.2601 -0.1464167,-0.41513 -0.141249,-0.15503 -0.3755156,-0.15503 -0.2652726,0 -0.4254696,0.14986 -0.1584745,0.14986 -0.1825902,0.42202 z"
         id="path15755" />
      <path
         d="m 12.285686,222.61351 v 1.16444 h -0.316949 v -1.1541 q 0,-0.27389 -0.106798,-0.40997 -0.106798,-0.13608 -0.320394,-0.13608 -0.25666,0 -0.404799,0.16364 -0.14814,0.16364 -0.14814,0.44614 v 1.09037 h -0.318671 v -1.92925 h 0.318671 v 0.29972 q 0.113689,-0.17397 0.266995,-0.2601 0.15503,-0.0861 0.356568,-0.0861 0.332452,0 0.502984,0.20671 0.170533,0.20498 0.170533,0.60461 z"
         id="path15757" />
      <path
         d="m 13.231365,221.30093 v 0.54777 h 0.652846 v 0.24632 h -0.652846 v 1.04731 q 0,0.23599 0.06373,0.30317 0.06546,0.0672 0.26355,0.0672 h 0.325562 v 0.26527 h -0.325562 q -0.366903,0 -0.50643,-0.13608 -0.139526,-0.1378 -0.139526,-0.49954 v -1.04731 h -0.232544 v -0.24632 h 0.232544 v -0.54777 z"
         id="path15759" />
      <path
         d="m 14.301068,221.8487 h 0.316949 v 1.92925 h -0.316949 z m 0,-0.75103 h 0.316949 v 0.40135 h -0.316949 z"
         id="path15761" />
      <path
         d="m 16.028784,222.07091 q -0.254937,0 -0.403076,0.19981 -0.148139,0.1981 -0.148139,0.54433 0,0.34623 0.146416,0.54605 0.14814,0.19809 0.404799,0.19809 0.253215,0 0.401354,-0.19982 0.148139,-0.19981 0.148139,-0.54432 0,-0.34279 -0.148139,-0.5426 -0.148139,-0.20154 -0.401354,-0.20154 z m 0,-0.26872 q 0.413412,0 0.649401,0.26872 0.235989,0.26872 0.235989,0.74414 0,0.4737 -0.235989,0.74414 -0.235989,0.26872 -0.649401,0.26872 -0.415134,0 -0.651123,-0.26872 -0.234267,-0.27044 -0.234267,-0.74414 0,-0.47542 0.234267,-0.74414 0.235989,-0.26872 0.651123,-0.26872 z"
         id="path15763" />
      <path
         d="m 18.941615,222.21905 q 0.118855,-0.2136 0.28422,-0.31523 0.165365,-0.10163 0.389296,-0.10163 0.301446,0 0.465088,0.21187 0.163642,0.21016 0.163642,0.59945 v 1.16444 H 19.92519 v -1.1541 q 0,-0.27733 -0.09819,-0.41169 -0.09819,-0.13436 -0.299724,-0.13436 -0.246324,0 -0.389296,0.16364 -0.142971,0.16364 -0.142971,0.44614 v 1.09037 h -0.318672 v -1.1541 q 0,-0.27906 -0.09819,-0.41169 -0.09819,-0.13436 -0.303169,-0.13436 -0.242879,0 -0.385851,0.16536 -0.142971,0.16365 -0.142971,0.44442 v 1.09037 h -0.318672 v -1.92925 h 0.318672 v 0.29972 q 0.10852,-0.17742 0.260105,-0.26182 0.151584,-0.0844 0.360012,-0.0844 0.210151,0 0.356568,0.1068 0.148139,0.1068 0.218764,0.31006 z"
         id="path15765" />
      <path
         d="m 22.526238,222.73409 v 0.15503 h -1.457276 q 0.02067,0.32728 0.19637,0.49954 0.177423,0.17053 0.492649,0.17053 0.18259,0 0.353123,-0.0448 0.172255,-0.0448 0.341064,-0.13435 v 0.29972 q -0.170532,0.0724 -0.349677,0.11024 -0.179145,0.0379 -0.363458,0.0379 -0.461643,0 -0.732083,-0.26872 -0.268718,-0.26872 -0.268718,-0.72692 0,-0.4737 0.254938,-0.75103 0.256659,-0.27905 0.690742,-0.27905 0.389296,0 0.61495,0.25149 0.227376,0.24977 0.227376,0.68041 z m -0.316949,-0.093 q -0.0034,-0.2601 -0.146417,-0.41513 -0.141249,-0.15503 -0.375515,-0.15503 -0.265273,0 -0.42547,0.14986 -0.158474,0.14986 -0.18259,0.42202 z"
         id="path15767" />
      <path
         d="m 23.359952,221.30093 v 0.54777 h 0.652846 v 0.24632 h -0.652846 v 1.04731 q 0,0.23599 0.06374,0.30317 0.06546,0.0672 0.26355,0.0672 h 0.325561 v 0.26527 h -0.325561 q -0.366903,0 -0.50643,-0.13608 -0.139526,-0.1378 -0.139526,-0.49954 v -1.04731 h -0.232544 v -0.24632 h 0.232544 v -0.54777 z"
         id="path15769" />
      <path
         d="m 26.079857,222.73409 v 0.15503 h -1.457276 q 0.02067,0.32728 0.196371,0.49954 0.177422,0.17053 0.492649,0.17053 0.18259,0 0.353122,-0.0448 0.172255,-0.0448 0.341065,-0.13435 v 0.29972 q -0.170532,0.0724 -0.349678,0.11024 -0.179145,0.0379 -0.363457,0.0379 -0.461643,0 -0.732084,-0.26872 -0.268717,-0.26872 -0.268717,-0.72692 0,-0.4737 0.254937,-0.75103 0.25666,-0.27905 0.690742,-0.27905 0.389296,0 0.61495,0.25149 0.227376,0.24977 0.227376,0.68041 z m -0.316949,-0.093 q -0.0034,-0.2601 -0.146416,-0.41513 -0.141249,-0.15503 -0.375516,-0.15503 -0.265272,0 -0.425469,0.14986 -0.158475,0.14986 -0.182591,0.42202 z"
         id="path15771" />
      <path
         d="m 27.718002,222.14498 q -0.0534,-0.031 -0.117133,-0.0448 -0.06201,-0.0155 -0.137804,-0.0155 -0.268718,0 -0.413412,0.1757 -0.142972,0.17398 -0.142972,0.50126 v 1.0163 H 26.58801 v -1.92925 h 0.318671 v 0.29972 q 0.09991,-0.1757 0.260105,-0.2601 0.160197,-0.0861 0.389296,-0.0861 0.03273,0 0.07235,0.005 0.03962,0.003 0.08785,0.0121 z"
         id="path15773" />
    </g>
  </g>
  <g
     inkscape:groupmode="layer"
     id="layer2"
     inkscape:label="components"
     style="display:inline" />
</svg>
